<svg xmlns="http://www.w3.org/2000/svg" width="242" height="86" viewBox="0 0 242 86" fill="none" role="img" aria-labelledby="logo-title">
  <title id="logo-title">IEYAL Solutions</title>
  <path d="M18.5 35.5C21.7 20.9 31.2 8.8 43.1 9.5C53.9 10.2 58.4 20.6 52.6 31.8C46.5 43.6 32.4 51.2 21.2 48.8C12.4 46.9 11.5 38.7 18.5 35.5Z" stroke="#E31E24" stroke-width="7" stroke-linecap="round" stroke-linejoin="round"/>
  <path d="M39.5 18.5C28.4 25.1 16.5 40.5 16.8 56.2C17 66.2 25.3 69 33.8 62.6C42.9 55.7 51.7 38.3 47.3 27.8C45.7 23.9 43.1 20.9 39.5 18.5Z" stroke="#E6017F" stroke-width="7" stroke-linecap="round" stroke-linejoin="round"/>
  <path d="M57.9 40.2C50.8 44.3 43.6 51.9 40.4 60.5C37.7 67.6 42.2 72.9 49.1 69.4C56.3 65.8 62.1 54.5 61.8 46.6C61.7 43.9 60.4 41.8 57.9 40.2Z" stroke="#E31E24" stroke-width="7" stroke-linecap="round" stroke-linejoin="round"/>
  <text x="76" y="43" fill="#9A005D" font-family="Outfit, Inter, Arial, sans-serif" font-size="36" font-weight="900" letter-spacing="1">IEYAL</text>
  <text x="78" y="69" fill="#E6017F" font-family="Outfit, Inter, Arial, sans-serif" font-size="19" font-weight="600" letter-spacing="5">SOLUTIONS</text>
</svg>
